<svg width="21" height="21" viewBox="0 0 21 21" fill="none" xmlns="http://www.w3.org/2000/svg">
<path fill-rule="evenodd" clip-rule="evenodd" d="M19.5004 5.28269C19.5004 7.31129 17.8552 8.95649 15.8266 8.95649C13.798 8.95649 12.1537 7.31129 12.1537 5.28269C12.1537 3.25409 13.798 1.60889 15.8266 1.60889C17.8552 1.60889 19.5004 3.25409 19.5004 5.28269Z" stroke="#A3A9BA" stroke-width="1.5" stroke-linecap="round" stroke-linejoin="round"/>
<path fill-rule="evenodd" clip-rule="evenodd" d="M8.8467 5.28269C8.8467 7.31129 7.2024 8.95649 5.1729 8.95649C3.1452 8.95649 1.5 7.31129 1.5 5.28269C1.5 3.25409 3.1452 1.60889 5.1729 1.60889C7.2024 1.60889 8.8467 3.25409 8.8467 5.28269Z" stroke="#A3A9BA" stroke-width="1.5" stroke-linecap="round" stroke-linejoin="round"/>
<path fill-rule="evenodd" clip-rule="evenodd" d="M19.5004 15.8708C19.5004 17.8994 17.8552 19.5437 15.8266 19.5437C13.798 19.5437 12.1537 17.8994 12.1537 15.8708C12.1537 13.8422 13.798 12.197 15.8266 12.197C17.8552 12.197 19.5004 13.8422 19.5004 15.8708Z" stroke="#A3A9BA" stroke-width="1.5" stroke-linecap="round" stroke-linejoin="round"/>
<path fill-rule="evenodd" clip-rule="evenodd" d="M8.8467 15.8708C8.8467 17.8994 7.2024 19.5437 5.1729 19.5437C3.1452 19.5437 1.5 17.8994 1.5 15.8708C1.5 13.8422 3.1452 12.197 5.1729 12.197C7.2024 12.197 8.8467 13.8422 8.8467 15.8708Z" stroke="#A3A9BA" stroke-width="1.5" stroke-linecap="round" stroke-linejoin="round"/>
</svg>
