<svg width="25" height="25" viewBox="0 0 25 25" fill="none" xmlns="http://www.w3.org/2000/svg">
<path fill-rule="evenodd" clip-rule="evenodd" d="M2.75 21.6089C2.75 21.1947 3.08579 20.8589 3.5 20.8589H21.5C21.9142 20.8589 22.25 21.1947 22.25 21.6089C22.25 22.0231 21.9142 22.3589 21.5 22.3589H3.5C3.08579 22.3589 2.75 22.0231 2.75 21.6089Z" fill="#FF7269"/>
<path fill-rule="evenodd" clip-rule="evenodd" d="M2.75 18.6089C2.75 18.1947 3.08579 17.8589 3.5 17.8589H21.5C21.9142 17.8589 22.25 18.1947 22.25 18.6089C22.25 19.0231 21.9142 19.3589 21.5 19.3589H3.5C3.08579 19.3589 2.75 19.0231 2.75 18.6089Z" fill="#FF7269"/>
<path fill-rule="evenodd" clip-rule="evenodd" d="M12.5 6.35889C8.77206 6.35889 5.75 9.38095 5.75 13.1089V17.8589H19.25V13.1089C19.25 9.38095 16.2279 6.35889 12.5 6.35889ZM4.25 13.1089C4.25 8.55252 7.94364 4.85889 12.5 4.85889C17.0564 4.85889 20.75 8.55252 20.75 13.1089V18.6089C20.75 19.0231 20.4142 19.3589 20 19.3589H5C4.58579 19.3589 4.25 19.0231 4.25 18.6089V13.1089Z" fill="#FF7269"/>
<path fill-rule="evenodd" clip-rule="evenodd" d="M9 12.3589C9.41421 12.3589 9.75 12.6947 9.75 13.1089V15.1089C9.75 15.5231 9.41421 15.8589 9 15.8589C8.58579 15.8589 8.25 15.5231 8.25 15.1089V13.1089C8.25 12.6947 8.58579 12.3589 9 12.3589Z" fill="#FF7269"/>
<path fill-rule="evenodd" clip-rule="evenodd" d="M9.75 4.60889C9.75 3.0901 10.9812 1.85889 12.5 1.85889C14.0188 1.85889 15.25 3.0901 15.25 4.60889V5.60889H13.75V4.60889C13.75 3.91854 13.1903 3.35889 12.5 3.35889C11.8097 3.35889 11.25 3.91854 11.25 4.60889V5.60889H9.75V4.60889Z" fill="#FF7269"/>
</svg>
