<svg width="19" height="20" viewBox="0 0 19 20" fill="none" xmlns="http://www.w3.org/2000/svg">
<path d="M3.02383 4.60899C6.91433 3.35285 11.4725 3.06472 13.5001 3.10899C15.5277 3.15327 16.3832 3.87529 17.0001 5.10899C18.0001 7.10899 17.7891 12.0971 16.0001 13.6961C14.2121 15.2951 6.83021 15.4471 4.37021 13.6961C1.77121 11.8451 3.12906 6.80099 3.04406 3.35199C3.09506 1.42199 1.00006 1.10899 1.00006 1.10899" stroke="#A3A9BA" stroke-width="1.5" stroke-linecap="round" stroke-linejoin="round"/>
<path d="M10.5001 8.10901H13.2731" stroke="#A3A9BA" stroke-width="1.5" stroke-linecap="round" stroke-linejoin="round"/>
<path fill-rule="evenodd" clip-rule="evenodd" d="M4.76399 17.7364C5.06399 17.7364 5.30799 17.9804 5.30799 18.2804C5.30799 18.5814 5.06399 18.8254 4.76399 18.8254C4.46299 18.8254 4.21899 18.5814 4.21899 18.2804C4.21899 17.9804 4.46299 17.7364 4.76399 17.7364Z" fill="#A3A9BA" stroke="#A3A9BA" stroke-width="1.5" stroke-linecap="round" stroke-linejoin="round"/>
<path fill-rule="evenodd" clip-rule="evenodd" d="M15.0955 17.7364C15.3965 17.7364 15.6405 17.9804 15.6405 18.2804C15.6405 18.5814 15.3965 18.8254 15.0955 18.8254C14.7955 18.8254 14.5515 18.5814 14.5515 18.2804C14.5515 17.9804 14.7955 17.7364 15.0955 17.7364Z" fill="#A3A9BA" stroke="#A3A9BA" stroke-width="1.5" stroke-linecap="round" stroke-linejoin="round"/>
</svg>
