<svg width="20" height="20" viewBox="0 0 20 20" fill="none" xmlns="http://www.w3.org/2000/svg">
<path fill-rule="evenodd" clip-rule="evenodd" d="M19.2194 4.54441C19.2194 6.57301 17.5742 8.21821 15.5456 8.21821C13.517 8.21821 11.8727 6.57301 11.8727 4.54441C11.8727 2.51581 13.517 0.870605 15.5456 0.870605C17.5742 0.870605 19.2194 2.51581 19.2194 4.54441Z" stroke="#A3A9BA" stroke-width="1.5" stroke-linecap="round" stroke-linejoin="round"/>
<path fill-rule="evenodd" clip-rule="evenodd" d="M8.56569 4.54441C8.56569 6.57301 6.92139 8.21821 4.89189 8.21821C2.86419 8.21821 1.21899 6.57301 1.21899 4.54441C1.21899 2.51581 2.86419 0.870605 4.89189 0.870605C6.92139 0.870605 8.56569 2.51581 8.56569 4.54441Z" stroke="#A3A9BA" stroke-width="1.5" stroke-linecap="round" stroke-linejoin="round"/>
<path fill-rule="evenodd" clip-rule="evenodd" d="M19.2194 15.1325C19.2194 17.1611 17.5742 18.8054 15.5456 18.8054C13.517 18.8054 11.8727 17.1611 11.8727 15.1325C11.8727 13.1039 13.517 11.4587 15.5456 11.4587C17.5742 11.4587 19.2194 13.1039 19.2194 15.1325Z" stroke="#A3A9BA" stroke-width="1.5" stroke-linecap="round" stroke-linejoin="round"/>
<path fill-rule="evenodd" clip-rule="evenodd" d="M8.56569 15.1325C8.56569 17.1611 6.92139 18.8054 4.89189 18.8054C2.86419 18.8054 1.21899 17.1611 1.21899 15.1325C1.21899 13.1039 2.86419 11.4587 4.89189 11.4587C6.92139 11.4587 8.56569 13.1039 8.56569 15.1325Z" stroke="#A3A9BA" stroke-width="1.5" stroke-linecap="round" stroke-linejoin="round"/>
</svg>
