<svg width="25" height="25" viewBox="0 0 25 25" fill="none" xmlns="http://www.w3.org/2000/svg">
  <path fill-rule="evenodd" clip-rule="evenodd" d="M2.46899 21.8706C2.46899 21.4564 2.80478 21.1206 3.21899 21.1206H21.219C21.6332 21.1206 21.969 21.4564 21.969 21.8706C21.969 22.2848 21.6332 22.6206 21.219 22.6206H3.21899C2.80478 22.6206 2.46899 22.2848 2.46899 21.8706Z" fill="#A3A9BA"/>
  <path fill-rule="evenodd" clip-rule="evenodd" d="M2.46899 18.8706C2.46899 18.4564 2.80478 18.1206 3.21899 18.1206H21.219C21.6332 18.1206 21.969 18.4564 21.969 18.8706C21.969 19.2848 21.6332 19.6206 21.219 19.6206H3.21899C2.80478 19.6206 2.46899 19.2848 2.46899 18.8706Z" fill="#A3A9BA"/>
  <path fill-rule="evenodd" clip-rule="evenodd" d="M12.219 6.62061C8.49106 6.62061 5.46899 9.64267 5.46899 13.3706V18.1206H18.969V13.3706C18.969 9.64267 15.9469 6.62061 12.219 6.62061ZM3.96899 13.3706C3.96899 8.81424 7.66263 5.12061 12.219 5.12061C16.7754 5.12061 20.469 8.81424 20.469 13.3706V18.8706C20.469 19.2848 20.1332 19.6206 19.719 19.6206H4.71899C4.30478 19.6206 3.96899 19.2848 3.96899 18.8706V13.3706Z" fill="#A3A9BA"/>
  <path fill-rule="evenodd" clip-rule="evenodd" d="M8.71899 12.6206C9.13321 12.6206 9.46899 12.9564 9.46899 13.3706V15.3706C9.46899 15.7848 9.13321 16.1206 8.71899 16.1206C8.30478 16.1206 7.96899 15.7848 7.96899 15.3706V13.3706C7.96899 12.9564 8.30478 12.6206 8.71899 12.6206Z" fill="#A3A9BA"/>
  <path fill-rule="evenodd" clip-rule="evenodd" d="M9.46899 4.87061C9.46899 3.35182 10.7002 2.12061 12.219 2.12061C13.7378 2.12061 14.969 3.35182 14.969 4.87061V5.87061H13.469V4.87061C13.469 4.18025 12.9093 3.62061 12.219 3.62061C11.5287 3.62061 10.969 4.18025 10.969 4.87061V5.87061H9.46899V4.87061Z" fill="#A3A9BA"/>
</svg>