<svg width="12" height="12" viewBox="0 0 12 12" fill="none" xmlns="http://www.w3.org/2000/svg">
<path fill-rule="evenodd" clip-rule="evenodd" d="M6.18139 1.1474C5.07848 1.1474 4.97421 3.06843 4.31758 3.74717C3.66096 4.42591 1.61959 3.64986 1.33596 4.85458C1.05294 6.05992 2.88934 6.46889 3.11576 7.50301C3.34337 8.53713 2.22139 9.99007 3.18011 10.7131C4.13883 11.4356 5.17084 9.80036 6.18139 9.80036C7.19195 9.80036 8.22396 11.4356 9.18267 10.7131C10.1414 9.99007 9.02001 8.53713 9.24703 7.50301C9.47404 6.46889 11.3098 6.05992 11.0268 4.85458C10.7438 3.64986 8.70183 4.42591 8.0458 3.74717C7.38917 3.06843 7.28431 1.1474 6.18139 1.1474Z" stroke="#686F82" stroke-linecap="round" stroke-linejoin="round"/>
</svg>
