<svg width="18" height="18" viewBox="0 0 18 18" fill="none" xmlns="http://www.w3.org/2000/svg">
<path d="M7.36266 14.0596H0.890137" stroke="#FF7269" stroke-width="1.5" stroke-linecap="round" stroke-linejoin="round"/>
<path fill-rule="evenodd" clip-rule="evenodd" d="M11.424 14.0605C11.424 16.1023 12.1048 16.7823 14.1457 16.7823C16.1866 16.7823 16.8675 16.1023 16.8675 14.0605C16.8675 12.0187 16.1866 11.3387 14.1457 11.3387C12.1048 11.3387 11.424 12.0187 11.424 14.0605Z" stroke="#FF7269" stroke-width="1.5" stroke-linecap="round" stroke-linejoin="round"/>
<path d="M10.3955 3.57093H16.8672" stroke="#FF7269" stroke-width="1.5" stroke-linecap="round" stroke-linejoin="round"/>
<path fill-rule="evenodd" clip-rule="evenodd" d="M6.33424 3.5696C6.33424 1.5287 5.65335 0.847809 3.61245 0.847809C1.57067 0.847809 0.889771 1.5287 0.889771 3.5696C0.889771 5.61139 1.57067 6.29139 3.61245 6.29139C5.65335 6.29139 6.33424 5.61139 6.33424 3.5696Z" stroke="#FF7269" stroke-width="1.5" stroke-linecap="round" stroke-linejoin="round"/>
</svg>
