<svg width="20" height="20" viewBox="0 0 20 20" fill="none" xmlns="http://www.w3.org/2000/svg">
<path d="M3.74283 4.8707C7.63333 3.61455 12.1915 3.32642 14.2191 3.3707C16.2467 3.41497 17.1022 4.137 17.7191 5.3707C18.7191 7.3707 18.5081 12.3588 16.7191 13.9578C14.9311 15.5568 7.5492 15.7088 5.0892 13.9578C2.4902 12.1068 3.84806 7.0627 3.76306 3.6137C3.81406 1.6837 1.71906 1.3707 1.71906 1.3707" stroke="#A3A9BA" stroke-width="1.5" stroke-linecap="round" stroke-linejoin="round"/>
<path d="M11.2191 8.3707H13.9921" stroke="#A3A9BA" stroke-width="1.5" stroke-linecap="round" stroke-linejoin="round"/>
<path fill-rule="evenodd" clip-rule="evenodd" d="M5.48299 17.9981C5.78299 17.9981 6.02699 18.2421 6.02699 18.5421C6.02699 18.8431 5.78299 19.0871 5.48299 19.0871C5.18199 19.0871 4.93799 18.8431 4.93799 18.5421C4.93799 18.2421 5.18199 17.9981 5.48299 17.9981Z" fill="#A3A9BA" stroke="#A3A9BA" stroke-width="1.5" stroke-linecap="round" stroke-linejoin="round"/>
<path fill-rule="evenodd" clip-rule="evenodd" d="M15.8145 17.9981C16.1155 17.9981 16.3595 18.2421 16.3595 18.5421C16.3595 18.8431 16.1155 19.0871 15.8145 19.0871C15.5145 19.0871 15.2705 18.8431 15.2705 18.5421C15.2705 18.2421 15.5145 17.9981 15.8145 17.9981Z" fill="#A3A9BA" stroke="#A3A9BA" stroke-width="1.5" stroke-linecap="round" stroke-linejoin="round"/>
</svg>
