<svg width="25" height="25" viewBox="0 0 25 25" fill="none" xmlns="http://www.w3.org/2000/svg">
<path d="M11.6437 18.7979H5.17114" stroke="#FF7269" stroke-width="1.5" stroke-linecap="round" stroke-linejoin="round"/>
<path fill-rule="evenodd" clip-rule="evenodd" d="M15.705 18.7988C15.705 20.8405 16.3859 21.5205 18.4267 21.5205C20.4676 21.5205 21.1485 20.8405 21.1485 18.7988C21.1485 16.757 20.4676 16.077 18.4267 16.077C16.3859 16.077 15.705 16.757 15.705 18.7988Z" stroke="#FF7269" stroke-width="1.5" stroke-linecap="round" stroke-linejoin="round"/>
<path d="M14.6765 8.30922H21.1482" stroke="#FF7269" stroke-width="1.5" stroke-linecap="round" stroke-linejoin="round"/>
<path fill-rule="evenodd" clip-rule="evenodd" d="M10.6153 8.30788C10.6153 6.26698 9.93436 5.58609 7.89346 5.58609C5.85167 5.58609 5.17078 6.26698 5.17078 8.30788C5.17078 10.3497 5.85167 11.0297 7.89346 11.0297C9.93436 11.0297 10.6153 10.3497 10.6153 8.30788Z" stroke="#FF7269" stroke-width="1.5" stroke-linecap="round" stroke-linejoin="round"/>
</svg>
