<svg width="11" height="12" viewBox="0 0 11 12" fill="none" xmlns="http://www.w3.org/2000/svg">
<path fill-rule="evenodd" clip-rule="evenodd" d="M5.18141 2.63698C2.86296 2.63698 0.98349 4.51645 0.98349 6.8349C0.98349 9.15334 2.86296 11.0328 5.18141 11.0328C7.49985 11.0328 9.37932 9.15334 9.37932 6.8349C9.37932 4.51645 7.49985 2.63698 5.18141 2.63698ZM0.17099 6.8349C0.17099 4.06772 2.41423 1.82448 5.18141 1.82448C7.94858 1.82448 10.1918 4.06772 10.1918 6.8349C10.1918 9.60208 7.94858 11.8453 5.18141 11.8453C2.41423 11.8453 0.17099 9.60208 0.17099 6.8349Z" fill="#686F82"/>
<path fill-rule="evenodd" clip-rule="evenodd" d="M3.15015 0.605732C3.15015 0.381366 3.33203 0.199482 3.5564 0.199482H6.8064C7.03076 0.199482 7.21265 0.381366 7.21265 0.605732C7.21265 0.830098 7.03076 1.01198 6.8064 1.01198H3.5564C3.33203 1.01198 3.15015 0.830098 3.15015 0.605732Z" fill="#686F82"/>
<path fill-rule="evenodd" clip-rule="evenodd" d="M5.1814 4.26198C5.40576 4.26198 5.58765 4.44387 5.58765 4.66823V6.8349C5.58765 7.05926 5.40576 7.24115 5.1814 7.24115C4.95703 7.24115 4.77515 7.05926 4.77515 6.8349V4.66823C4.77515 4.44387 4.95703 4.26198 5.1814 4.26198Z" fill="#686F82"/>
<path fill-rule="evenodd" clip-rule="evenodd" d="M4.77515 6.8349C4.77515 6.61053 4.95703 6.42865 5.1814 6.42865H7.34806C7.57243 6.42865 7.75431 6.61053 7.75431 6.8349C7.75431 7.05927 7.57243 7.24115 7.34806 7.24115H5.1814C4.95703 7.24115 4.77515 7.05927 4.77515 6.8349Z" fill="#686F82"/>
<path fill-rule="evenodd" clip-rule="evenodd" d="M5.1814 0.199482C5.40576 0.199482 5.58765 0.381366 5.58765 0.605732V1.68907C5.58765 1.91343 5.40576 2.09532 5.1814 2.09532C4.95703 2.09532 4.77515 1.91343 4.77515 1.68907V0.605732C4.77515 0.381366 4.95703 0.199482 5.1814 0.199482Z" fill="#686F82"/>
</svg>
